<?xml version="1.0" encoding="UTF-8"?>
<svg id="_レイヤー_1" data-name="レイヤー 1" xmlns="http://www.w3.org/2000/svg" viewBox="0 0 140.12 138.96">
  <defs>
    <style>
      .cls-1 {
        fill: #fff;
      }
    </style>
  </defs>
  <path class="cls-1" d="M25.56,96.84c-.08.3-.2.57-.25.81v.1c0,.18.11.26.25.3.25.08.54.22.54.47,0,.39-3.44.95-8.17.95-3.06,0-3.88-.43-3.88-1.64v-.41l-6.02.22.03,1v.28c0,4.41-1.33,7.52-3.77,9.73-.03.04-.11.06-.17.06-.17,0-.4-.12-.4-.24,0-.02,0-.06.03-.08,1.78-2.09,2.41-5.22,2.41-9.46v-.57c0-1.22-.09-3.09-.34-4.41.71.14,1.76.43,2.41.71h6.33v-1.44c0-.69,0-1.3-.14-1.97,2.8,0,2.83.39,2.83.47,0,.16-.25.35-.82.45-.03.08-.03.35-.06.71h5.56c.34-.32.77-.75,1.16-1.02.06-.06.14-.08.2-.08.31,0,2.3.91,2.3,1.32,0,.16-.2.26-.54.26h-8.68c-.03.49-.03,1-.03,1.3h7.97c.11-.08.79-.65,1.05-.65.23,0,2.01.87,2.01,1.42,0,.22-.25.32-.68.32-.17,0-.4-.02-.62-.06-.96.63-2.02,1.14-2.13,1.14-.14,0-.43-.1-.31-.32.28-.35.54-.81.8-1.34h-8.65c0,.39-.03,1.01-.03,1.56l4.26-.08c.25-.32.82-.99,1.11-.99s2.07.71,2.07,1.1c0,.12-.17.22-.48.24l-6.98.3v.32c0,.59.34.83,2.35.83,2.41,0,5.93-.26,6.33-.69t.65-1.04s.09-.06.17-.06c.14,0,.34.06.34.18v.02ZM18.07,105.33c-3.17,1.85-10.83,2.6-10.86,2.6-.17,0-.31-.18-.31-.28,0-.06.06-.08.37-.18,2.8-.73,8.74-1.95,10.64-3.53-.06-.2-.14-.39-.2-.59-2.78,1.5-9.5,2.15-9.64,2.15-.17,0-.25-.18-.25-.26,0-.04.03-.06.03-.06.06-.06.14-.08.28-.12,2.18-.59,7.43-1.56,8.93-2.74-.11-.14-.25-.28-.42-.41-2.13.93-7.97,1.44-8.11,1.44s-.31-.18-.31-.3c0-.02.03-.02.03-.04.06-.06.2-.06.31-.1,1.76-.45,6.61-1.22,7.75-2.05h-.26c-1.22,0-5.62.01-6.98.11-.14-.1-.65-.58-.65-.76.71.08,6.36.16,8.26.16h7.43c.48-.47,1.11-.99,1.36-.99.03,0,.09,0,.11.02.74.26,2.07.95,2.07,1.26,0,.12-.17.2-.45.2h-8.54c-.48.3-.99.57-1.5.83.93.55,1.61,1.28,2.07,2.09,1.13-.71,5.31-1.77,5.45-2.3.93.28,2.18.87,2.18,1.2,0,.14-.17.22-.48.22-.17,0-.37-.02-.59-.08-.96.47-5.22.95-6.38,1.32.03.08.08.18.11.26,1.42.2,7.72.97,7.72,2.19,0,.39-.28.73-.79.73-.31,0-.65-.16-.96-.53-.62-.81-4.52-1.5-5.85-2.01.09.3.14.59.17.89,0,.14.03.26.03.37,0,2.86-3.23,2.86-3.29,2.86-.2,0-.31-.08-.37-.2-.23-.55-1.05-.73-2.24-.93-.09-.02-.11-.08-.11-.14,0-.14.09-.28.23-.28h.03c.62.1,1.64.2,2.24.2,1.16,0,1.76-.57,1.78-1.73v-.49ZM14.07,95.17h-6.07l.03,1.9,6.02-.22.03-1.68ZM29.76,95.13c0-.35,0-1.58-.2-2.4.28,0,2.92.12,2.92.61,0,.18-.26.37-.88.49-.06.3-.06,2.5-.06,4.24v2.07c0,.81.03,1.81.09,2.84,0,.2.06.71.06.95v.04c0,.32-.34.53-1.27.53-.59,0-.82-.18-.82-.47v-.04s.03-.35.06-.81c.08-.91.11-2.4.11-3.17v-4.87ZM36.31,94.24s0-2.05-.23-2.88c.2,0,3.17.1,3.17.57,0,.16-.31.34-.99.47-.03.85-.06,2.78-.06,4.9,0,2.82.03,5.93.03,7.17,0,.45.09,1.75.11,2.09v.14c0,2.01-2.92,2.3-3.12,2.3s-.31-.1-.4-.2c-.4-.67-3.1-1.18-5.28-1.52-.09-.02-.14-.1-.14-.22,0-.14.08-.32.23-.3.57.06,4.43.63,5.25.63s1.42-.34,1.42-1v-12.17ZM135.54,108.7c0,.57-1.1.57-1.33.57-.65,0-1.08-.14-1.08-.47,0-.28.03-.67.03-1.06h-26.16v.14c0,.2.03.67.03.87s-.31.63-1.53.63c-.62,0-.88-.22-.88-.47v-.04c0-.1.06-.65.09-1.18.06-1.08.11-3.29.11-4.89v-7.78c0-1.02-.08-2.58-.28-3.55.74.14,2.01.53,2.75.85h25.62c.31-.28.82-.71,1.05-.81h.06c.28,0,2.27.87,2.27,1.3,0,.22-.31.37-.88.47-.06.43-.06,2.01-.06,3.72,0,2.56.03,5.48.03,5.48,0,.97.08,5.08.17,6.21v.02ZM133.22,92.94h-26.27v10.09c0,.75,0,2.7.03,4.1h26.22c0-.47.03-3.3.03-4.14v-10.05ZM126.05,97.12h-11.43c-1.36,0-4.53.02-6.01.14-.23-.16-.43-.59-.45-.85,1.36.12,5.07.16,7.2.16h10.69v-.28c0-.51,0-1.77-.23-2.5,2.55.08,3.2.33,3.2.61,0,.18-.28.35-.93.45-.03.26-.06.91-.06,1.71h.79c.34-.49,1.16-1.32,1.45-1.32.25,0,2.15,1.18,2.15,1.58,0,.14-.14.3-.48.3h-3.91v1.89c0,2.9.06,4.61.06,4.81v.04c0,1.54-2.48,2.24-3.39,2.29-.21.01-.33-.15-.41-.25-.42-.65-8.87-.78-11.45-1.09-.11-.02-.17-.12-.17-.22,0-.16.08-.32.23-.3,1.61.14,10.8.22,11.43.22,1.16,0,1.73-.43,1.73-1.12v-6.26ZM115.84,101.41c.03.59-.49.97-1,1-.37.02-.79.04-1.02-.52-.36-.87-.76-1.68-3.03-2.6-.03-.02-.03-.04-.03-.06,0-.12.15-.3.35-.31,0,0,4.63.72,4.73,2.49ZM5.66,134.69c0-.34.62-.68,1.6-.68,4.13,0,13.16-3.64,13.16-7.47,0-1.94-1.84-4.01-6.86-3.92-1.54.03-4.34.84-5.33,2.3-.52.8-1.14,1.57-1.93,1.57-.85,0-1.54-.94-1.54-1.98,0-1.62,1.57-3.89,6.22-5.58.1-.05.16-.09.16-.14,0-.02-.07-.07-.16-.09-2.69-.64-3.47-1.78-3.47-2.25,0-.27.27-.56.56-.56.23,0,.52.14.69.45.46.89,3.21,1.38,3.7,1.39s1.28-.1,1.57-.15c.2-.05.39-.07.62-.07.36,0,2.1.27,2.1.98,0,.64-1.21.8-1.93.8-5.01.16-8.52,2.8-8.52,4.15,0,.05,0,.39.36.39.13,0,.26-.07.39-.18,1.54-1.25,4.87-1.98,6.9-1.98,3.8,0,8.48,1.17,8.48,4.89,0,5.9-13.63,8.58-15.76,8.58-.69,0-1.01-.21-1.01-.43v-.02ZM32.63,124.28c.19-.43.35-.81.35-1.16,0-.31-.13-.6-.45-.92-.35-.36-.55-.67-.55-.96,0-.56.68-1.39,3.9-1.32.75.02,1.77.3,2.25.32.13,0,.35-.02.35-.11,0-.07-1.09-.43-2.44-1.11-.39-.2-2.89-1.55-3.03-2.05-.19-.67.34-.99.89-.87.31.07.45.45.79.78s2.73,1.41,3.31,1.61c1.55.54,3.92,1.29,4.82,2.36.23.25.32.52.32.76,0,.36-.23.81-.9.81-.26,0-.58-.09-.93-.29-1.22-.76-4.67-1.53-6.44-1.53-1.32,0-1.67.29-1.67.56,0,.2.19.45.64.76.9.6,1.26.96,1.26,1.37,0,.31-.23.63-.55,1.07-.32.38-1.74,1.68-1.74,3.02,0,.76.52,1.5.74,1.5.1,0,.19-.02.29-.11,2.48-1.77,6.45-3.57,10.18-3.57,3.54,0,6.42,1.17,6.5,3.51.04,1.35-1.64,5.75-13.91,5.75-1.22,0-1.8-.25-1.8-.47,0-.29.55-.52,1.22-.52.16,0,.35.02.55.05.32.04.71.07,1.09.07,6.09-.1,10.58-1.96,10.58-4.83,0-1.3-1.76-2.65-4.43-2.65-3.45,0-7.12,2.13-8.98,4.21-.23.25-.35.96-.77,1.14-.13.07-.26.09-.42.09-1.16,0-2.54-2.06-2.54-3.58,0-.81.41-1.23,1.06-2.67l.45-1.03ZM67.08,122.3c-.13.96-.19,3.51-.19,4.49,0,.42,0,.85.03,1.25,3.7-1.39,5.52-1.68,7.83-1.68,3.09,0,5.63,1.05,5.63,2.82,0,2.37-4.02,3.89-6.92,3.89-2.09,0-3.74-.76-3.74-2.35,0-.31.29-2.28,1.29-2.28.13,0,.48.09.48.38,0,.07,0,.16-.06.25-.1.2-.42.42-.48.63-.06.2-.1.38-.1.54,0,1.05,1.13,1.52,2.51,1.52,2.19,0,4.83-1.21,4.83-2.64,0-.96-1.22-1.92-4.25-1.92-2.48,0-4.23.53-6.97,1.65.03.67.13,1.3.23,1.84.06.38.26.98.32,1.37.03.16.03.31.03.47,0,.25-.03,1.48-1.09,1.48-.35,0-.74-.16-1.16-.54-.16-.13-.42-.54-4.16-1.28-.87.69-1.71,1.07-2.42,1.07-1,0-1.13-.52-1.13-.74,0-.27.19-1.32,2.38-1.39.39,0,.77-.13,1.09-.31,1.13-.63,2.67-1.5,4.61-2.31,0-1.37.06-4.42.16-5.86-1.96.54-2.96.83-3.93.83-2.7,0-3.74-1.13-3.74-2.11,0-.29.1-.49.32-.52.16-.03.47,0,.74.36s1.48,1.19,2.96,1.19c.55,0,1.51-.46,3.7-1.04.03-.78.13-1.5.19-2.1v-.18c0-.85-.64-1.43-2.25-1.48-.32-.02-.58-.11-.58-.29,0-.34.82-.61,1.56-.61.64,0,2.13.65,2.35.74.58.25.77.58.77.94s-.08.5-.21.85c.58.22,1.19.43,1.8.43.06,0,.16-.02.23-.02h.19c.8,0,1.09.34,1.09.69,0,.6-1.06,1.01-1.74,1.25l-2.25.72ZM65.76,131.35c-.03-.52-.06-1.21-.06-1.99-1.55.74-2.84,1.57-3.93,2.35,1.16.11,2.22.31,3.09.34h.06c.45,0,.84-.18.84-.65v-.04ZM67.3,120.98c.77-.25,1.22-.43,1.22-.58,0-.05,0-.34-.93-.67-.1.38-.23.81-.29,1.25ZM80.55,123.69h-.23c-.13,0-.23-.02-.35-.02-.87,0-1.48.27-2.25.6-.16.07-.32.09-.45.09-.26,0-.42-.11-.42-.25,0-.11.06-.22.26-.34,1.13-.67,1.42-.92,1.42-1.14,0-.49-1.09-.94-2.67-.94-1.8,0-2.45.34-3.16.69-.29.16-.58.22-.8.22-.26,0-.42-.11-.42-.27,0-.47,2.09-1.59,5.05-1.59,3.8,0,5.38,1.66,5.38,2.24,0,.43-.55.69-1.35.69ZM102.01,133.45c3.45,0,5.31-1.84,5.35-3.81.05-2.3-2-4.6-3.68-5.07-.58-.16-.9-.49-.9-.72,0-.18.19-.25.42-.25s.58.07,1.06.31c2.49,1.04,4.8,3.4,4.73,5.86-.09,2.93-3.52,5.02-6.86,5-7.04-.04-6.06-5.51-6.03-5.83-.35-.09-3.3-1.14-3.3-3.18,0-.85.5-1.41.98-1.92.06-.07.1-.11.1-.18,0-.09-.1-.2-.26-.29-1.09-.54-5.25-1.53-5.7-2.45-.1-.2-.16-.36-.16-.52,0-.05,0-.57.52-.6.58-.04,1.02.35,1.21.71.91,1.15,4.64,1.56,5.71,1.85,1.29.36,1.58.6,1.8.85.55-2.48.55-3.2.55-3.4,0-1.28-.9-1.48-2.54-2.01-.23-.09-.39-.16-.39-.29,0-.22.23-.65,1.13-.65.52,0,1.06.16,1.48.38.45.25.87.54,1.38.74.87.36,1.13.74,1.13,1.14,0,.45-.27.8-.46,1.34-.58,1.72-1.55,4.75-1.84,7.43.16,0,.35.02.52.02h.1c.52,0,.68-.13,1.13-.2.23-.05.48-.05.71-.05,1.16,0,1.87.45,1.87.85,0,.83-2.25.83-2.54.83-.61,0-1.26-.05-1.87-.16-.06,3.03,2.39,4.26,4.64,4.26ZM96.21,127.67c.16-1.16.39-2.39.61-3.54-.19.04-.45.09-.74.09h-.29c-1.42,0-2.31.83-2.31,1.5s.86,1.37,2.51,1.88l.23.07ZM132.1,119.49c-5.6.45-9.45,4.11-9.43,7.92.01,3.76,6.04,4.66,7.39,4.66.42,0,.8-.07,1.29-.11.16,0,.32-.02.48-.02,1.45,0,2.99.63,2.99,1.39,0,.85-1.87.85-2.13.85-4.06,0-11-1.72-11.09-6.39-.06-2.94,1.64-5.89,3.99-7.21-2.29.69-4.51,1.57-5.86,2.08-.87.34-1.55.56-2.41.56-1.55,0-3.77-.48-3.82-2.05-.01-.36.19-.55.38-.55s.42.07.74.2c1.48.6,2,1.02,3.06,1.02.48,0,.93-.07,1.35-.18,1.74-.49,9.95-2.73,11.88-3.09.52-.09,1.15-.25,1.54-.53.27-.2.77-.39,1.35-.39h.13c1.22.06,1.94.36,1.94,1,0,.31-.36.78-1.23.81l-2.54.04Z"/>
  <path class="cls-1" d="M136.25,51.34c-.3-4.73-2.76-8.9-7.13-12.05-8.6-6.2-19.92-6.97-35.02-5.79-15.1,1.18-27.68-.35-33.31-1.78-5.64-1.43-11.08-3.75-10.97-8.61s5.7-7.16,10.85-7.26c5.96-.11,11.92,2.2,18.25,4.66,7.96,3.09,16.19,6.29,24.32,4.17,4.06-1.06,7.16-4.3,7.55-7.89.29-2.69-.72-7.97-10.78-13.08-.26-.13-.53-.06-.66.16l-1.53,2.02c-.07.1-.11.22-.11.33,0,.16.08.3.21.39,1.99,1.36,2.59,2.94,2.74,4.03.22,1.57-.32,2.88-.86,3.53-3.6,4.36-20.58.95-26.97-.34-.84-.17-1.52-.31-2-.39-10.03-1.81-28.13-3.76-36.61,3.47-2.49,2.12-3.78,4.76-3.72,7.64.04,2.27,1.05,4.31,3.01,6.08,5.03,4.56,16.2,6.97,32.76,7.17,1.57.02,3.2.01,4.87,0-.9.23-1.77.45-2.61.67-.78.21-1.88.52-3.23.91-10.32,2.96-37.74,10.84-44.23,4.15-.96-.99-2.03-3.07-1.88-5.67.11-1.81.88-4.48,3.97-6.98.16-.13.27-.32.29-.52.02-.23-.05-.47-.22-.67l-1.76-2.14c-.28-.38-.73-.46-1.14-.21-6.93,4.27-18.29,12.9-16.4,22.8,1.21,6.33,7.35,10.15,12.9,11.13,13.64,2.39,26.73-3.95,39.39-10.09,10.07-4.88,19.57-9.49,29.35-10.09,8.47-.53,17.38,1.59,18.51,9.76.37,2.65-.51,5.99-2.87,8.47-9.16,9.62-29.31,14.9-63.3,14.9h-.02c-.17-.01-.62-.04-.91.31-.2.24-.25.57-.15.97.04.15.05.2,1.65,2.49l.42.6c.3.43.77.93,1.85.93,49.73,0,80.47-5.88,91.36-17.48,3-3.19,4.4-6.79,4.15-10.7Z"/>
</svg>