<?xml version="1.0" encoding="UTF-8"?>
<svg id="_レイヤー_1" data-name="レイヤー 1" xmlns="http://www.w3.org/2000/svg" viewBox="0 0 286.91 63.16">
  <defs>
    <style>
      .cls-1 {
        fill: #fff;
      }
    </style>
  </defs>
  <path class="cls-1" d="M152.14,13.61c-.1.34-.23.67-.3.94v.11c0,.21.13.3.3.34.3.09.63.25.63.55,0,.46-4,1.1-9.51,1.1-3.56,0-4.52-.5-4.52-1.9v-.48l-7.01.25.03,1.17v.32c0,5.14-1.55,8.76-4.39,11.33-.03.05-.13.07-.2.07-.2,0-.46-.14-.46-.28,0-.02,0-.07.03-.09,2.08-2.43,2.8-6.08,2.8-11.01v-.66c0-1.42-.1-3.6-.4-5.14.82.16,2.05.5,2.8.83h7.37v-1.67c0-.8,0-1.51-.16-2.29,3.27,0,3.3.46,3.3.55,0,.18-.3.41-.96.53-.03.09-.03.41-.07.83h6.48c.4-.37.89-.87,1.35-1.19.07-.07.17-.09.23-.09.36,0,2.67,1.06,2.67,1.54,0,.18-.23.3-.63.3h-10.11c-.03.57-.03,1.17-.03,1.51h9.28c.13-.09.92-.76,1.22-.76.26,0,2.34,1.01,2.34,1.65,0,.25-.3.37-.79.37-.2,0-.46-.02-.73-.07-1.12.73-2.35,1.33-2.48,1.33-.17,0-.51-.12-.36-.37.33-.41.63-.94.93-1.56h-10.07c0,.46-.03,1.18-.03,1.82l4.96-.09c.3-.37.96-1.15,1.29-1.15s2.41.83,2.41,1.28c0,.14-.2.25-.56.28l-8.13.34v.37c0,.69.4.96,2.74.96,2.8,0,6.91-.3,7.37-.8t.76-1.22s.1-.07.2-.07c.17,0,.4.07.4.21v.02ZM143.42,23.5c-3.69,2.16-12.61,3.03-12.65,3.03-.2,0-.36-.21-.36-.32,0-.07.07-.09.43-.21,3.27-.85,10.17-2.27,12.38-4.11-.07-.23-.17-.46-.23-.69-3.23,1.74-11.06,2.5-11.23,2.5-.2,0-.3-.21-.3-.3,0-.05.03-.07.03-.07.07-.07.17-.09.33-.14,2.54-.69,8.66-1.81,10.4-3.19-.13-.16-.3-.32-.49-.48-2.47,1.08-9.28,1.67-9.45,1.67s-.36-.21-.36-.34c0-.02.03-.02.03-.05.07-.07.23-.07.36-.11,2.05-.53,7.7-1.42,9.02-2.39h-.3c-1.42,0-6.55.02-8.13.13-.17-.11-.75-.67-.75-.88.83.09,7.4.18,9.61.18h8.66c.56-.55,1.29-1.15,1.58-1.15.03,0,.1,0,.13.02.86.3,2.41,1.1,2.41,1.47,0,.14-.2.23-.53.23h-9.94c-.56.34-1.16.66-1.75.96,1.09.64,1.88,1.49,2.41,2.43,1.32-.83,6.18-2.06,6.35-2.68,1.09.32,2.54,1.01,2.54,1.4,0,.16-.2.25-.56.25-.2,0-.43-.02-.69-.09-1.12.55-6.08,1.1-7.43,1.54.03.09.1.21.13.3,1.65.23,8.99,1.12,8.99,2.55,0,.46-.33.85-.92.85-.36,0-.76-.18-1.12-.62-.73-.94-5.26-1.74-6.81-2.34.1.34.17.69.2,1.03,0,.16.03.3.03.44,0,3.33-3.76,3.33-3.83,3.33-.23,0-.36-.09-.43-.23-.26-.64-1.22-.85-2.61-1.08-.1-.02-.13-.09-.13-.16,0-.16.1-.32.26-.32h.03c.73.11,1.91.23,2.61.23,1.35,0,2.05-.67,2.08-2.02v-.57ZM138.77,11.66h-7.07l.03,2.21,7.01-.25.03-1.96ZM157.03,11.62c0-.41,0-1.83-.23-2.8.33,0,3.4.14,3.4.71,0,.21-.3.44-1.02.57-.07.34-.07,2.91-.07,4.93v2.41c0,.94.03,2.11.1,3.3,0,.23.07.83.07,1.1v.05c0,.37-.4.62-1.48.62-.69,0-.96-.21-.96-.55v-.05s.03-.41.07-.94c.1-1.06.13-2.8.13-3.69v-5.67ZM164.66,10.59s0-2.39-.26-3.35c.23,0,3.69.11,3.69.66,0,.18-.36.39-1.15.55-.03.99-.07,3.23-.07,5.71,0,3.28.03,6.9.03,8.35,0,.53.1,2.04.13,2.43v.16c0,2.34-3.4,2.68-3.63,2.68s-.36-.11-.46-.23c-.46-.78-3.61-1.38-6.15-1.77-.1-.02-.17-.11-.17-.25,0-.16.1-.37.26-.34.66.07,5.16.74,6.11.74s1.65-.39,1.65-1.17v-14.17ZM280.2,27.42c0,.66-1.29.66-1.55.66-.76,0-1.25-.16-1.25-.55,0-.32.03-.78.03-1.24h-30.46v.16c0,.23.03.78.03,1.01s-.36.73-1.78.73c-.73,0-1.02-.25-1.02-.55v-.05c0-.11.07-.76.1-1.38.07-1.26.13-3.83.13-5.69v-9.06c0-1.19-.1-3-.33-4.13.86.16,2.34.62,3.2.99h29.83c.36-.32.96-.83,1.22-.94h.07c.33,0,2.64,1.01,2.64,1.51,0,.25-.36.44-1.02.55-.07.5-.07,2.34-.07,4.34,0,2.98.03,6.38.03,6.38,0,1.12.1,5.92.2,7.22v.02ZM277.5,9.07h-30.59v11.75c0,.87,0,3.15.03,4.78h30.52c0-.55.03-3.84.03-4.82v-11.7ZM269.15,13.93h-13.3c-1.58,0-5.28.02-6.99.16-.26-.18-.5-.69-.53-.99,1.58.14,5.9.18,8.38.18h12.45v-.32c0-.6,0-2.06-.26-2.91,2.97.09,3.73.39,3.73.71,0,.21-.33.41-1.09.53-.03.3-.07,1.06-.07,2h.92c.4-.57,1.35-1.54,1.68-1.54.3,0,2.51,1.38,2.51,1.83,0,.16-.17.34-.56.34h-4.55v2.2c0,3.37.07,5.37.07,5.6v.05c0,1.79-2.89,2.61-3.94,2.66-.25.01-.38-.18-.48-.29-.49-.76-10.33-.9-13.33-1.27-.13-.02-.2-.14-.2-.25,0-.18.1-.37.26-.34,1.88.16,12.58.25,13.3.25,1.35,0,2.01-.5,2.01-1.31v-7.29ZM257.27,18.94c.04.69-.57,1.13-1.16,1.16-.43.02-.92.04-1.19-.6-.42-1.01-.88-1.96-3.53-3.03-.03-.02-.04-.04-.04-.07,0-.14.18-.35.41-.37,0,0,5.4.84,5.51,2.9ZM128.97,57.68c0-.4.72-.8,1.87-.8,4.8,0,15.32-4.24,15.32-8.69,0-2.25-2.15-4.66-7.98-4.56-1.79.03-5.06.98-6.2,2.68-.61.93-1.33,1.83-2.25,1.83-.99,0-1.79-1.09-1.79-2.31,0-1.88,1.83-4.53,7.24-6.49.11-.05.19-.11.19-.16,0-.03-.08-.08-.19-.11-3.13-.74-4.04-2.07-4.04-2.62,0-.32.31-.66.65-.66.27,0,.61.16.8.53.53,1.03,3.73,1.61,4.31,1.62s1.49-.12,1.83-.17c.23-.05.46-.08.72-.08.42,0,2.44.32,2.44,1.14,0,.74-1.41.93-2.25.93-5.83.19-9.92,3.26-9.92,4.83,0,.05,0,.45.42.45.15,0,.3-.08.46-.21,1.79-1.46,5.67-2.31,8.03-2.31,4.42,0,9.87,1.36,9.87,5.7,0,6.87-15.87,10-18.35,10-.8,0-1.18-.24-1.18-.5v-.03ZM160.38,45.56c.22-.5.41-.94.41-1.36,0-.36-.15-.7-.52-1.07-.41-.42-.64-.78-.64-1.12,0-.65.79-1.62,4.54-1.54.88.02,2.06.35,2.62.37.15,0,.41-.03.41-.13,0-.08-1.27-.51-2.85-1.29-.45-.24-3.36-1.8-3.52-2.38-.22-.78.4-1.16,1.04-1.01.37.08.52.52.93.91s3.18,1.64,3.86,1.88c1.8.63,4.56,1.5,5.61,2.75.26.29.38.6.38.89,0,.42-.26.94-1.05.94-.3,0-.67-.1-1.09-.34-1.42-.89-5.43-1.78-7.5-1.78-1.54,0-1.95.34-1.95.65,0,.23.23.52.75.89,1.05.7,1.46,1.12,1.46,1.59,0,.37-.26.73-.64,1.25-.38.44-2.02,1.96-2.02,3.52,0,.89.6,1.75.86,1.75.11,0,.22-.03.34-.13,2.89-2.06,7.51-4.16,11.85-4.16,4.12,0,7.48,1.37,7.57,4.08.05,1.57-1.91,6.7-16.2,6.7-1.42,0-2.1-.29-2.1-.55,0-.34.64-.6,1.42-.6.19,0,.41.03.64.05.38.05.83.08,1.27.08,7.1-.11,12.32-2.28,12.32-5.62,0-1.51-2.05-3.09-5.16-3.09-4.01,0-8.29,2.48-10.46,4.9-.26.29-.41,1.12-.9,1.33-.15.08-.3.1-.49.1-1.35,0-2.96-2.4-2.96-4.17,0-.94.48-1.44,1.23-3.1l.52-1.2ZM200.48,43.25c-.15,1.12-.23,4.08-.23,5.23,0,.49,0,.99.04,1.46,4.31-1.62,6.42-1.95,9.12-1.95,3.6,0,6.56,1.22,6.56,3.28,0,2.76-4.69,4.54-8.06,4.54-2.44,0-4.35-.89-4.35-2.74,0-.36.34-2.66,1.5-2.66.15,0,.56.1.56.44,0,.08,0,.18-.07.29-.11.23-.49.49-.56.73-.07.23-.11.44-.11.63,0,1.22,1.31,1.77,2.92,1.77,2.55,0,5.62-1.41,5.62-3.08,0-1.12-1.42-2.24-4.95-2.24-2.89,0-4.92.62-8.11,1.93.04.78.15,1.51.26,2.14.07.44.3,1.15.38,1.59.04.18.04.37.04.55,0,.29-.04,1.72-1.27,1.72-.41,0-.86-.18-1.35-.63-.19-.16-.49-.63-4.84-1.49-1.01.81-1.99,1.25-2.81,1.25-1.16,0-1.31-.6-1.31-.86,0-.31.22-1.54,2.77-1.62.45,0,.9-.16,1.27-.36,1.31-.73,3.11-1.75,5.36-2.68,0-1.59.07-5.15.19-6.82-2.29.63-3.45.96-4.58.96-3.15,0-4.35-1.31-4.35-2.46,0-.34.11-.57.37-.61.19-.03.55,0,.86.41s1.73,1.39,3.45,1.39c.64,0,1.76-.53,4.31-1.21.04-.91.15-1.75.23-2.45v-.21c0-.99-.75-1.67-2.62-1.72-.38-.03-.67-.13-.67-.34,0-.39.95-.71,1.81-.71.75,0,2.47.76,2.74.86.67.29.9.68.9,1.09s-.09.58-.24.99c.67.26,1.39.5,2.1.5.08,0,.19-.03.26-.03h.23c.94,0,1.27.39,1.27.81,0,.7-1.24,1.17-2.03,1.46l-2.62.83ZM198.95,53.8c-.04-.6-.07-1.41-.07-2.32-1.8.86-3.3,1.82-4.58,2.74,1.35.13,2.59.36,3.6.39h.07c.52,0,.97-.21.97-.76v-.05ZM200.75,41.71c.9-.29,1.42-.5,1.42-.68,0-.05,0-.39-1.09-.78-.11.44-.26.94-.34,1.46ZM216.18,44.87h-.26c-.15,0-.26-.03-.41-.03-1.01,0-1.72.31-2.62.7-.19.08-.38.1-.52.1-.3,0-.49-.13-.49-.29,0-.13.07-.26.3-.39,1.31-.78,1.65-1.07,1.65-1.33,0-.57-1.27-1.09-3.11-1.09-2.1,0-2.85.39-3.67.81-.34.18-.67.26-.94.26-.3,0-.49-.13-.49-.31,0-.55,2.44-1.85,5.89-1.85,4.42,0,6.26,1.93,6.26,2.61,0,.5-.64.81-1.57.81ZM241.16,56.24c4.01,0,6.18-2.14,6.23-4.44.06-2.68-2.33-5.36-4.28-5.91-.67-.18-1.05-.57-1.05-.83,0-.21.22-.29.49-.29s.68.08,1.24.37c2.9,1.21,5.59,3.96,5.51,6.82-.1,3.41-4.1,5.84-7.99,5.82-8.19-.05-7.05-6.42-7.02-6.78-.41-.1-3.84-1.33-3.84-3.7,0-.99.58-1.64,1.14-2.24.07-.08.11-.13.11-.21,0-.1-.11-.24-.3-.34-1.27-.63-6.11-1.78-6.63-2.85-.11-.24-.19-.42-.19-.6,0-.05,0-.67.6-.7.68-.04,1.19.41,1.41.83,1.06,1.34,5.41,1.81,6.64,2.15,1.5.42,1.84.7,2.1.99.64-2.89.64-3.73.64-3.96,0-1.49-1.05-1.72-2.96-2.35-.26-.1-.45-.18-.45-.34,0-.26.27-.75,1.32-.75.6,0,1.24.18,1.72.44.52.29,1.01.63,1.61.86,1.01.42,1.31.86,1.31,1.33,0,.52-.31.94-.53,1.56-.68,2.01-1.8,5.53-2.14,8.65.19,0,.41.03.6.03h.11c.6,0,.79-.16,1.31-.23.26-.05.56-.05.82-.05,1.35,0,2.17.52,2.17.99,0,.96-2.62.96-2.96.96-.71,0-1.46-.05-2.17-.18-.07,3.53,2.78,4.96,5.4,4.96ZM234.41,49.51c.19-1.36.45-2.79.71-4.12-.22.05-.52.1-.86.1h-.34c-1.65,0-2.69.96-2.69,1.74s1.01,1.59,2.92,2.19l.26.08ZM276.19,39.98c-6.52.52-11,4.78-10.98,9.22.02,4.38,7.04,5.43,8.61,5.43.49,0,.94-.08,1.5-.13.19,0,.38-.03.56-.03,1.69,0,3.49.73,3.49,1.62,0,.99-2.17.99-2.47.99-4.72,0-12.81-2-12.92-7.44-.07-3.42,1.91-6.86,4.64-8.4-2.66.81-5.25,1.82-6.82,2.42-1.01.39-1.8.65-2.81.65-1.8,0-4.39-.56-4.45-2.38-.01-.42.22-.65.45-.65s.49.08.86.23c1.72.7,2.32,1.19,3.56,1.19.56,0,1.09-.08,1.57-.21,2.02-.57,11.59-3.18,13.84-3.6.6-.1,1.34-.29,1.79-.61.32-.23.89-.45,1.57-.45h.15c1.42.07,2.26.42,2.26,1.16,0,.36-.42.91-1.44.94l-2.96.05Z"/>
  <path class="cls-1" d="M106.5,39.35c-.23-3.72-2.17-6.99-5.61-9.47-6.76-4.87-15.66-5.48-27.53-4.55-11.87.93-21.75-.27-26.18-1.4-4.43-1.13-8.71-2.94-8.62-6.77s4.48-5.63,8.53-5.71c4.69-.08,9.37,1.73,14.35,3.66,6.26,2.43,12.73,4.94,19.12,3.28,3.19-.83,5.63-3.38,5.93-6.2.23-2.11-.57-6.26-8.47-10.28-.21-.11-.42-.05-.52.12l-1.2,1.59c-.06.08-.09.17-.09.26,0,.12.06.23.16.31,1.56,1.07,2.03,2.31,2.16,3.16.17,1.23-.25,2.26-.67,2.77-2.83,3.43-16.17.74-21.2-.27-.66-.13-1.19-.24-1.57-.31-7.88-1.42-22.11-2.95-28.78,2.73-1.96,1.67-2.97,3.74-2.93,6,.03,1.78.83,3.39,2.36,4.78,3.96,3.58,12.73,5.48,25.75,5.64,1.24.01,2.52.01,3.83,0-.71.18-1.39.35-2.05.53-.61.16-1.47.41-2.54.72-8.11,2.33-29.66,8.52-34.77,3.26-.76-.78-1.6-2.42-1.48-4.46.08-1.42.69-3.52,3.12-5.49.13-.1.21-.25.22-.41.02-.18-.04-.37-.17-.53l-1.38-1.68c-.22-.3-.58-.36-.9-.16-5.45,3.35-14.37,10.14-12.89,17.92.95,4.98,5.78,7.98,10.14,8.75,10.72,1.88,21.01-3.1,30.96-7.93,7.91-3.83,15.39-7.46,23.07-7.93,6.66-.41,13.66,1.25,14.55,7.67.29,2.08-.4,4.7-2.26,6.66-7.2,7.56-23.04,11.71-49.75,11.71h-.02c-.13,0-.49-.03-.71.24-.16.19-.2.45-.12.76.03.12.04.16,1.29,1.96l.33.47c.23.34.61.73,1.46.73,39.09,0,63.25-4.62,71.81-13.74,2.36-2.51,3.45-5.34,3.26-8.41Z"/>
</svg>