<?xml version="1.0" encoding="UTF-8"?>
<svg id="_レイヤー_1" data-name="レイヤー 1" xmlns="http://www.w3.org/2000/svg" viewBox="0 0 521.26 97.68">
  <defs>
    <style>
      .cls-1 {
        fill: #fff;
      }
    </style>
  </defs>
  <path class="cls-1" d="M341.88,19.61c-.14.47-.32.91-.41,1.29v.16c0,.28.18.41.41.47.41.13.86.35.86.76,0,.63-5.5,1.51-13.06,1.51-4.89,0-6.2-.69-6.2-2.61v-.66l-9.62.35.04,1.61v.44c0,7.05-2.13,12.03-6.02,15.55-.05.06-.18.09-.27.09-.27,0-.63-.19-.63-.38,0-.03,0-.09.05-.13,2.85-3.34,3.85-8.34,3.85-15.11v-.91c0-1.95-.14-4.94-.54-7.05,1.13.22,2.81.69,3.85,1.13h10.11v-2.3c0-1.1,0-2.08-.23-3.15,4.48,0,4.53.63,4.53.76,0,.25-.41.57-1.31.72-.05.13-.05.57-.09,1.13h8.89c.54-.5,1.22-1.2,1.86-1.64.09-.09.23-.13.32-.13.5,0,3.67,1.45,3.67,2.11,0,.25-.32.41-.86.41h-13.87c-.04.79-.04,1.61-.04,2.08h12.74c.18-.13,1.27-1.04,1.68-1.04.36,0,3.22,1.39,3.22,2.27,0,.35-.41.5-1.09.5-.27,0-.63-.03-1-.09-1.54,1.01-3.23,1.82-3.41,1.82-.23,0-.69-.16-.49-.5.45-.57.87-1.29,1.28-2.14h-13.83c0,.63-.04,1.62-.04,2.5l6.81-.13c.41-.5,1.31-1.58,1.77-1.58s3.31,1.13,3.31,1.76c0,.19-.27.35-.77.38l-11.16.47v.5c0,.94.54,1.32,3.76,1.32,3.85,0,9.48-.41,10.12-1.1q.04-.06,1.04-1.67c.04-.06.14-.09.27-.09.23,0,.54.09.54.28v.03ZM329.91,33.18c-5.07,2.96-17.31,4.16-17.36,4.16-.27,0-.5-.28-.5-.44,0-.09.09-.13.59-.28,4.48-1.17,13.96-3.12,17-5.64-.09-.32-.23-.63-.32-.94-4.44,2.39-15.19,3.43-15.41,3.43-.27,0-.41-.28-.41-.41,0-.06.05-.09.05-.09.09-.09.23-.13.45-.19,3.49-.94,11.88-2.49,14.28-4.38-.18-.22-.41-.44-.68-.66-3.4,1.48-12.74,2.3-12.97,2.3s-.5-.28-.5-.47c0-.03.05-.03.05-.06.09-.09.32-.09.5-.16,2.81-.72,10.57-1.95,12.38-3.27h-.41c-1.95,0-8.99.02-11.16.18-.23-.16-1.03-.93-1.03-1.21,1.13.13,10.16.25,13.19.25h11.88c.77-.76,1.77-1.58,2.17-1.58.05,0,.14,0,.18.03,1.18.41,3.31,1.51,3.31,2.01,0,.19-.27.32-.72.32h-13.65c-.77.47-1.59.91-2.4,1.32,1.49.88,2.58,2.05,3.31,3.34,1.81-1.13,8.48-2.83,8.71-3.68,1.49.44,3.49,1.39,3.49,1.92,0,.22-.27.35-.77.35-.27,0-.59-.03-.95-.13-1.54.76-8.35,1.51-10.2,2.11.04.13.14.28.18.41,2.26.31,12.33,1.54,12.33,3.49,0,.63-.45,1.17-1.27,1.17-.5,0-1.04-.25-1.54-.85-1-1.29-7.22-2.39-9.35-3.21.14.47.23.94.27,1.42,0,.22.04.41.04.6,0,4.57-5.16,4.57-5.25,4.57-.32,0-.5-.13-.59-.31-.36-.88-1.68-1.16-3.58-1.48-.14-.03-.18-.13-.18-.22,0-.22.14-.44.36-.44h.05c1,.16,2.63.31,3.58.31,1.86,0,2.81-.91,2.85-2.77v-.79ZM323.53,16.94h-9.71l.05,3.03,9.62-.35.05-2.69ZM348.59,16.87c0-.57,0-2.52-.32-3.84.45,0,4.66.19,4.66.98,0,.28-.41.6-1.4.79-.09.47-.09,4-.09,6.77v3.31c0,1.29.05,2.9.14,4.53,0,.32.09,1.13.09,1.51v.06c0,.5-.54.85-2.04.85-.95,0-1.31-.28-1.31-.76v-.06c0-.06.04-.57.09-1.29.14-1.45.18-3.84.18-5.07v-7.78ZM359.06,15.46s0-3.27-.36-4.6c.32,0,5.07.16,5.07.91,0,.25-.5.54-1.58.76-.05,1.35-.09,4.44-.09,7.84,0,4.5.04,9.48.04,11.46,0,.72.14,2.8.18,3.34v.22c0,3.21-4.66,3.68-4.98,3.68s-.5-.16-.63-.31c-.63-1.07-4.95-1.89-8.44-2.43-.14-.03-.23-.16-.23-.35,0-.22.14-.5.36-.47.91.09,7.08,1.01,8.39,1.01s2.26-.54,2.26-1.61V15.46ZM517.66,38.57c0,.91-1.77.91-2.13.91-1.04,0-1.72-.22-1.72-.76,0-.44.05-1.07.05-1.7h-41.81v.22c0,.31.04,1.07.04,1.39s-.5,1.01-2.45,1.01c-1,0-1.4-.35-1.4-.76v-.06c0-.16.09-1.04.14-1.89.09-1.73.18-5.26.18-7.81v-12.44c0-1.64-.14-4.12-.45-5.67,1.18.22,3.22.85,4.39,1.35h40.95c.5-.44,1.31-1.13,1.68-1.29h.09c.45,0,3.62,1.39,3.62,2.08,0,.35-.5.6-1.4.76-.09.69-.09,3.21-.09,5.95,0,4.09.05,8.75.05,8.75,0,1.54.14,8.12.27,9.92v.03ZM513.95,13.37h-41.99v16.13c0,1.2,0,4.32.04,6.56h41.9c0-.76.05-5.27.05-6.62V13.37ZM502.49,20.05h-18.26c-2.17,0-7.24.03-9.6.22-.36-.25-.68-.94-.72-1.35,2.17.19,8.11.25,11.5.25h17.09v-.44c0-.82,0-2.83-.36-4,4.08.13,5.12.53,5.12.98,0,.28-.45.57-1.49.72-.04.41-.09,1.45-.09,2.74h1.27c.54-.79,1.86-2.11,2.31-2.11.41,0,3.44,1.89,3.44,2.52,0,.22-.23.47-.77.47h-6.25v3.02c0,4.63.09,7.37.09,7.68v.06c0,2.46-3.96,3.58-5.41,3.66-.34.02-.52-.24-.66-.4-.68-1.04-14.18-1.24-18.3-1.75-.18-.03-.27-.19-.27-.35,0-.25.14-.5.36-.47,2.58.22,17.27.35,18.26.35,1.86,0,2.76-.69,2.76-1.79v-10.01ZM486.18,26.92c.05.94-.78,1.55-1.59,1.6-.59.03-1.26.06-1.63-.83-.58-1.39-1.21-2.69-4.85-4.16-.05-.03-.05-.06-.05-.09-.01-.19.25-.49.56-.5,0,0,7.41,1.15,7.56,3.98ZM310.08,84.38c0-.55.99-1.09,2.56-1.09,6.59,0,21.03-5.82,21.03-11.93,0-3.09-2.94-6.4-10.96-6.26-2.46.04-6.94,1.35-8.51,3.68-.84,1.27-1.83,2.52-3.09,2.52-1.36,0-2.46-1.5-2.46-3.17,0-2.58,2.51-6.22,9.94-8.91.16-.07.26-.15.26-.22,0-.04-.1-.11-.26-.15-4.29-1.02-5.55-2.84-5.55-3.6,0-.44.43-.9.9-.9.37,0,.84.22,1.1.73.73,1.42,5.12,2.21,5.92,2.22s2.04-.16,2.52-.24c.31-.07.63-.11.99-.11.58,0,3.35.44,3.35,1.56,0,1.02-1.94,1.27-3.09,1.27-8.01.25-13.62,4.48-13.62,6.63,0,.07,0,.62.58.62.21,0,.42-.11.63-.29,2.46-2,7.78-3.17,11.03-3.17,6.07,0,13.55,1.86,13.55,7.82,0,9.42-21.79,13.72-25.19,13.72-1.1,0-1.62-.33-1.62-.69v-.04ZM353.19,67.74c.31-.68.57-1.29.57-1.86,0-.5-.21-.97-.72-1.47-.57-.57-.88-1.07-.88-1.54,0-.9,1.08-2.22,6.23-2.11,1.2.03,2.83.48,3.6.51.21,0,.57-.04.57-.18,0-.11-1.74-.69-3.91-1.77-.62-.32-4.62-2.48-4.83-3.27-.3-1.08.54-1.59,1.42-1.39.5.12.71.71,1.27,1.25s4.37,2.26,5.3,2.58c2.47.86,6.26,2.06,7.7,3.77.36.39.51.82.51,1.22,0,.57-.36,1.29-1.44,1.29-.41,0-.93-.14-1.49-.47-1.96-1.22-7.46-2.45-10.29-2.45-2.11,0-2.68.47-2.68.9,0,.32.31.72,1.03,1.22,1.44.97,2.01,1.54,2.01,2.18,0,.5-.36,1-.87,1.72-.51.61-2.77,2.69-2.77,4.83,0,1.22.82,2.4,1.18,2.4.15,0,.31-.04.46-.18,3.96-2.83,10.3-5.71,16.27-5.71,5.66,0,10.27,1.88,10.39,5.61.07,2.16-2.63,9.19-22.23,9.19-1.96,0-2.88-.39-2.88-.75,0-.46.88-.82,1.96-.82.26,0,.57.04.88.07.51.07,1.13.12,1.75.11,9.74-.16,16.91-3.13,16.91-7.71,0-2.08-2.81-4.24-7.08-4.24-5.51,0-11.37,3.4-14.36,6.73-.36.39-.57,1.54-1.24,1.82-.21.11-.41.14-.67.14-1.85,0-4.06-3.29-4.06-5.72,0-1.29.66-1.97,1.69-4.26l.72-1.65ZM408.24,64.57c-.21,1.54-.31,5.6-.31,7.18,0,.68,0,1.36.05,2,5.92-2.22,8.82-2.68,12.52-2.68,4.94,0,9.01,1.68,9.01,4.51,0,3.79-6.43,6.22-11.06,6.22-3.35,0-5.97-1.22-5.97-3.76,0-.5.46-3.65,2.06-3.65.21,0,.77.14.77.61,0,.11,0,.25-.1.39-.15.32-.67.68-.77,1-.1.32-.15.61-.15.86,0,1.68,1.8,2.43,4.01,2.43,3.5,0,7.72-1.93,7.72-4.22,0-1.54-1.96-3.08-6.79-3.08-3.96,0-6.76.85-11.13,2.64.05,1.07.21,2.07.36,2.93.1.61.41,1.57.51,2.18.05.25.05.5.05.75,0,.39-.05,2.36-1.75,2.36-.57,0-1.18-.25-1.85-.86-.26-.21-.67-.86-6.64-2.04-1.39,1.11-2.73,1.72-3.86,1.72-1.6,0-1.8-.82-1.8-1.18,0-.43.31-2.11,3.81-2.22.62,0,1.24-.21,1.75-.5,1.8-1,4.27-2.4,7.36-3.69,0-2.18.1-7.07.26-9.36-3.14.86-4.74,1.32-6.28,1.32-4.32,0-5.97-1.8-5.97-3.38,0-.46.15-.78.51-.84.25-.04.76,0,1.19.57s2.37,1.91,4.74,1.91c.88,0,2.42-.73,5.92-1.66.05-1.25.21-2.4.31-3.36v-.29c0-1.36-1.03-2.29-3.6-2.36-.51-.04-.93-.18-.93-.46,0-.54,1.3-.97,2.49-.97,1.03,0,3.4,1.04,3.76,1.18.93.39,1.24.93,1.24,1.5s-.12.79-.33,1.37c.93.36,1.9.68,2.88.68.1,0,.26-.04.36-.04h.31c1.29,0,1.75.54,1.75,1.11,0,.97-1.7,1.61-2.78,2l-3.6,1.14ZM406.12,79.05c-.05-.82-.1-1.93-.1-3.18-2.47,1.18-4.53,2.5-6.28,3.76,1.85.18,3.55.5,4.94.54h.1c.72,0,1.34-.29,1.34-1.04v-.07ZM408.6,62.46c1.24-.39,1.96-.68,1.96-.93,0-.07,0-.54-1.49-1.07-.15.61-.36,1.29-.46,2ZM429.78,66.8h-.36c-.21,0-.36-.04-.57-.04-1.39,0-2.37.43-3.6.97-.26.11-.51.14-.72.14-.41,0-.67-.18-.67-.39,0-.18.1-.36.41-.54,1.8-1.07,2.26-1.47,2.26-1.82,0-.79-1.75-1.5-4.27-1.5-2.88,0-3.91.54-5.04,1.11-.46.25-.93.36-1.29.36-.41,0-.67-.18-.67-.43,0-.75,3.34-2.54,8.08-2.54,6.07,0,8.59,2.65,8.59,3.58,0,.68-.88,1.11-2.16,1.11ZM464.07,82.4c5.51,0,8.48-2.94,8.55-6.09.09-3.67-3.2-7.36-5.87-8.11-.93-.25-1.44-.79-1.44-1.14,0-.29.31-.39.67-.39s.93.11,1.7.5c3.98,1.67,7.68,5.43,7.56,9.36-.14,4.68-5.63,8.02-10.96,7.98-11.25-.07-9.68-8.81-9.63-9.31-.57-.14-5.27-1.83-5.27-5.08,0-1.36.79-2.25,1.56-3.07.1-.11.15-.18.15-.29,0-.14-.15-.32-.41-.47-1.75-.86-8.38-2.44-9.1-3.91-.15-.32-.26-.57-.26-.82,0-.07,0-.91.82-.97.93-.06,1.63.56,1.94,1.13,1.45,1.84,7.42,2.49,9.12,2.95,2.06.57,2.52.97,2.88,1.36.88-3.97.88-5.12.88-5.44,0-2.04-1.44-2.36-4.06-3.22-.36-.14-.62-.25-.62-.46,0-.36.37-1.03,1.81-1.03.82,0,1.7.25,2.37.61.72.39,1.39.86,2.21,1.18,1.39.57,1.8,1.18,1.8,1.82,0,.71-.42,1.28-.73,2.14-.93,2.75-2.47,7.58-2.93,11.88.26,0,.57.04.82.04h.15c.82,0,1.08-.21,1.8-.32.36-.07.77-.07,1.13-.07,1.85,0,2.98.72,2.98,1.36,0,1.32-3.6,1.32-4.07,1.32-.98,0-2.01-.07-2.98-.25-.1,4.84,3.81,6.81,7.42,6.81ZM454.8,73.16c.26-1.86.62-3.83.98-5.65-.31.07-.72.14-1.18.14h-.46c-2.26,0-3.7,1.32-3.7,2.39s1.38,2.19,4,3.01l.36.11ZM512.16,60.08c-8.95.72-15.1,6.57-15.08,12.65.02,6.01,9.66,7.45,11.82,7.45.67,0,1.29-.11,2.06-.18.26,0,.51-.04.77-.04,2.32,0,4.79,1,4.79,2.22,0,1.36-2.98,1.36-3.4,1.36-6.48,0-17.58-2.74-17.73-10.22-.09-4.7,2.62-9.42,6.37-11.53-3.65,1.11-7.2,2.5-9.37,3.33-1.39.54-2.47.9-3.86.9-2.47,0-6.02-.77-6.1-3.27-.02-.58.31-.89.61-.89s.67.11,1.18.32c2.37.97,3.19,1.63,4.89,1.63.77,0,1.49-.11,2.16-.29,2.78-.79,15.9-4.36,18.99-4.93.82-.14,1.84-.4,2.46-.84.44-.31,1.22-.62,2.15-.62h.21c1.95.1,3.11.58,3.11,1.6,0,.5-.58,1.25-1.97,1.29l-4.07.07Z"/>
  <path class="cls-1" d="M168.11,60.35c-.37-5.9-3.44-11.09-8.89-15.02-10.72-7.73-24.84-8.69-43.67-7.21-18.83,1.47-34.51-.43-41.53-2.22-7.03-1.79-13.82-4.67-13.67-10.73.15-6.36,7.11-8.92,13.53-9.05,7.43-.13,14.86,2.75,22.75,5.81,9.92,3.85,20.19,7.84,30.33,5.2,5.06-1.32,8.93-5.36,9.41-9.83.36-3.35-.9-9.93-13.44-16.31-.33-.17-.66-.07-.83.2l-1.91,2.52c-.09.13-.14.27-.13.41,0,.19.09.37.26.48,2.48,1.69,3.23,3.66,3.42,5.02.28,1.95-.4,3.59-1.07,4.4-4.49,5.44-25.65,1.18-33.62-.42-1.04-.21-1.89-.38-2.49-.49-12.51-2.25-35.07-4.68-45.65,4.33-3.1,2.64-4.71,5.94-4.64,9.52.05,2.83,1.31,5.38,3.75,7.58,6.28,5.68,20.19,8.69,40.84,8.94,1.96.02,3.99.02,6.07,0-1.12.28-2.21.56-3.25.84-.97.26-2.34.65-4.03,1.14-12.87,3.69-47.05,13.51-55.14,5.17-1.2-1.24-2.54-3.83-2.34-7.08.13-2.25,1.1-5.59,4.94-8.7.2-.16.33-.4.36-.65.03-.29-.07-.59-.27-.84l-2.19-2.66c-.34-.47-.92-.57-1.42-.26C14.93,35.74.78,46.51,3.14,58.84c1.51,7.9,9.16,12.66,16.08,13.87,17,2.98,33.32-4.92,49.11-12.57,12.55-6.08,24.4-11.83,36.59-12.58,10.57-.66,21.67,1.98,23.08,12.17.46,3.31-.64,7.46-3.58,10.56-11.42,11.99-36.55,18.57-78.92,18.57h-.03c-.21-.01-.77-.05-1.13.38-.25.3-.31.71-.19,1.21.04.18.06.25,2.05,3.1l.52.75c.37.54.97,1.16,2.31,1.16,62,0,100.33-7.33,113.91-21.79,3.74-3.98,5.48-8.47,5.17-13.34Z"/>
</svg>