<svg width="29" height="30" viewBox="0 0 29 30" fill="none" xmlns="http://www.w3.org/2000/svg">
<g id="lineicons:instagram">
<path id="Vector" d="M10.4726 15C10.4726 14.4528 10.5768 13.911 10.7792 13.4054C10.9817 12.8999 11.2784 12.4405 11.6524 12.0536C12.0264 11.6666 12.4705 11.3597 12.9592 11.1503C13.4479 10.9409 13.9716 10.8331 14.5006 10.8331C15.0296 10.8331 15.5533 10.9409 16.042 11.1503C16.5307 11.3597 16.9748 11.6666 17.3488 12.0536C17.7228 12.4405 18.0195 12.8999 18.222 13.4054C18.4244 13.911 18.5286 14.4528 18.5286 15C18.5286 16.1051 18.1042 17.165 17.3488 17.9464C16.5934 18.7279 15.5689 19.1669 14.5006 19.1669C13.4323 19.1669 12.4078 18.7279 11.6524 17.9464C10.897 17.165 10.4726 16.1051 10.4726 15ZM8.29521 15C8.29521 15.8429 8.4557 16.6776 8.76752 17.4563C9.07934 18.2351 9.53638 18.9427 10.1125 19.5387C10.6887 20.1348 11.3727 20.6076 12.1255 20.9302C12.8783 21.2527 13.6852 21.4188 14.5 21.4188C15.3148 21.4188 16.1217 21.2527 16.8745 20.9302C17.6273 20.6076 18.3113 20.1348 18.8874 19.5387C19.4636 18.9427 19.9207 18.2351 20.2325 17.4563C20.5443 16.6776 20.7048 15.8429 20.7048 15C20.7048 13.2976 20.0511 11.665 18.8874 10.4613C17.7238 9.25751 16.1456 8.58125 14.5 8.58125C12.8544 8.58125 11.2762 9.25751 10.1125 10.4613C8.94892 11.665 8.29521 13.2976 8.29521 15M19.5001 8.3275C19.5001 8.62417 19.5851 8.91418 19.7445 9.16086C19.9038 9.40753 20.1302 9.59979 20.3952 9.71332C20.6601 9.82685 20.9517 9.85656 21.233 9.79868C21.5142 9.7408 21.7726 9.59794 21.9754 9.38816C22.1782 9.17838 22.3163 8.91111 22.3722 8.62014C22.4282 8.32916 22.3995 8.02756 22.2897 7.75347C22.18 7.47939 21.9941 7.24512 21.7557 7.0803C21.5172 6.91547 21.2369 6.8275 20.9501 6.8275C20.5655 6.8275 20.1967 6.98554 19.9248 7.26684C19.6528 7.54814 19.5001 7.92968 19.5001 8.3275M9.61833 25.175C8.44021 25.1187 7.79979 24.9162 7.37446 24.745C6.84957 24.5446 6.37475 24.2251 5.98487 23.81C5.5836 23.4067 5.27476 22.9155 5.08104 22.3725C4.91429 21.9325 4.71854 21.27 4.66537 20.0513C4.60616 18.7338 4.59529 18.3388 4.59529 15.0013C4.59529 11.6638 4.60737 11.2675 4.66537 9.94875C4.71854 8.73 4.91671 8.06875 5.08104 7.6275C5.29975 7.04375 5.56196 6.6275 5.98487 6.19C6.40779 5.7525 6.80896 5.48125 7.37446 5.255C7.79979 5.0825 8.44021 4.88 9.61833 4.825C10.8919 4.7625 11.2737 4.75 14.5 4.75C17.7262 4.75 18.1081 4.7625 19.3829 4.82375C20.561 4.87875 21.2002 5.08375 21.6267 5.25375C22.191 5.47875 22.5934 5.75125 23.0163 6.18875C23.4392 6.62625 23.7015 7.0425 23.9214 7.62625C24.0869 8.06625 24.2839 8.72875 24.3358 9.9475C24.395 11.2663 24.4071 11.66 24.4071 14.9987C24.4071 18.3362 24.395 18.7313 24.3358 20.05C24.2827 21.2688 24.0857 21.9312 23.9214 22.3712C23.7277 22.9142 23.4188 23.4054 23.0175 23.8088C22.6277 24.2239 22.1528 24.5433 21.628 24.7438C21.2014 24.915 20.561 25.1187 19.3829 25.1737C18.1093 25.2337 17.7275 25.2463 14.5 25.2463C11.2737 25.2463 10.8919 25.2337 9.61833 25.1737M9.51804 2.575C8.23237 2.63625 7.35271 2.8475 6.58541 3.15625C5.77882 3.46977 5.04809 3.96163 4.44425 4.5975C3.82958 5.22217 3.35411 5.97809 3.05104 6.8125C2.75258 7.6075 2.54837 8.51625 2.49037 9.84625C2.42875 11.1787 2.41666 11.605 2.41666 15C2.41666 18.395 2.42996 18.8212 2.48916 20.1537C2.54837 21.4837 2.75258 22.3925 3.05104 23.1875C3.35426 24.0215 3.82972 24.7769 4.44425 25.4012C5.04797 26.0376 5.77871 26.5299 6.58541 26.8438C7.35391 27.1525 8.23237 27.3637 9.51804 27.4237C10.8073 27.485 11.2182 27.5 14.5 27.5C17.7818 27.5 18.1939 27.4863 19.482 27.425C20.7676 27.3638 21.6461 27.1525 22.4146 26.8438C23.2209 26.5297 23.9512 26.0374 24.5545 25.4012C25.1694 24.7774 25.6452 24.0224 25.949 23.1888C26.2474 22.3925 26.4528 21.4837 26.5096 20.1537C26.5688 18.82 26.5821 18.395 26.5821 15C26.5821 11.605 26.5688 11.1787 26.5096 9.84625C26.4516 8.51625 26.2474 7.60625 25.949 6.8125C25.6455 5.97798 25.1696 5.22204 24.5545 4.5975C23.9514 3.96194 23.2215 3.47009 22.4158 3.15625C21.6461 2.8475 20.7676 2.635 19.4832 2.57625C18.1939 2.515 17.783 2.5 14.5 2.5C11.217 2.5 10.8061 2.51375 9.51683 2.575" fill="#222222"/>
<path id="Vector_2" d="M10.4726 15C10.4726 14.4528 10.5768 13.911 10.7792 13.4054C10.9817 12.8999 11.2784 12.4405 11.6524 12.0536C12.0264 11.6666 12.4705 11.3597 12.9592 11.1503C13.4479 10.9409 13.9716 10.8331 14.5006 10.8331C15.0296 10.8331 15.5533 10.9409 16.042 11.1503C16.5307 11.3597 16.9748 11.6666 17.3488 12.0536C17.7228 12.4405 18.0195 12.8999 18.222 13.4054C18.4244 13.911 18.5286 14.4528 18.5286 15C18.5286 16.1051 18.1042 17.165 17.3488 17.9464C16.5934 18.7279 15.5689 19.1669 14.5006 19.1669C13.4323 19.1669 12.4078 18.7279 11.6524 17.9464C10.897 17.165 10.4726 16.1051 10.4726 15ZM8.29521 15C8.29521 15.8429 8.4557 16.6776 8.76752 17.4563C9.07934 18.2351 9.53638 18.9427 10.1125 19.5387C10.6887 20.1348 11.3727 20.6076 12.1255 20.9302C12.8783 21.2527 13.6852 21.4188 14.5 21.4188C15.3148 21.4188 16.1217 21.2527 16.8745 20.9302C17.6273 20.6076 18.3113 20.1348 18.8874 19.5387C19.4636 18.9427 19.9207 18.2351 20.2325 17.4563C20.5443 16.6776 20.7048 15.8429 20.7048 15C20.7048 13.2976 20.0511 11.665 18.8874 10.4613C17.7238 9.25751 16.1456 8.58125 14.5 8.58125C12.8544 8.58125 11.2762 9.25751 10.1125 10.4613C8.94892 11.665 8.29521 13.2976 8.29521 15M19.5001 8.3275C19.5001 8.62417 19.5851 8.91418 19.7445 9.16086C19.9038 9.40753 20.1302 9.59979 20.3952 9.71332C20.6601 9.82685 20.9517 9.85656 21.233 9.79868C21.5142 9.7408 21.7726 9.59794 21.9754 9.38816C22.1782 9.17838 22.3163 8.91111 22.3722 8.62014C22.4282 8.32916 22.3995 8.02756 22.2897 7.75347C22.18 7.47939 21.9941 7.24512 21.7557 7.0803C21.5172 6.91547 21.2369 6.8275 20.9501 6.8275C20.5655 6.8275 20.1967 6.98554 19.9248 7.26684C19.6528 7.54814 19.5001 7.92968 19.5001 8.3275M9.61833 25.175C8.44021 25.1187 7.79979 24.9162 7.37446 24.745C6.84957 24.5446 6.37475 24.2251 5.98487 23.81C5.5836 23.4067 5.27476 22.9155 5.08104 22.3725C4.91429 21.9325 4.71854 21.27 4.66537 20.0513C4.60616 18.7338 4.59529 18.3388 4.59529 15.0013C4.59529 11.6638 4.60737 11.2675 4.66537 9.94875C4.71854 8.73 4.91671 8.06875 5.08104 7.6275C5.29975 7.04375 5.56196 6.6275 5.98487 6.19C6.40779 5.7525 6.80896 5.48125 7.37446 5.255C7.79979 5.0825 8.44021 4.88 9.61833 4.825C10.8919 4.7625 11.2737 4.75 14.5 4.75C17.7262 4.75 18.1081 4.7625 19.3829 4.82375C20.561 4.87875 21.2002 5.08375 21.6267 5.25375C22.191 5.47875 22.5934 5.75125 23.0163 6.18875C23.4392 6.62625 23.7015 7.0425 23.9214 7.62625C24.0869 8.06625 24.2839 8.72875 24.3358 9.9475C24.395 11.2663 24.4071 11.66 24.4071 14.9987C24.4071 18.3362 24.395 18.7313 24.3358 20.05C24.2827 21.2688 24.0857 21.9312 23.9214 22.3712C23.7277 22.9142 23.4188 23.4054 23.0175 23.8088C22.6277 24.2239 22.1528 24.5433 21.628 24.7438C21.2014 24.915 20.561 25.1187 19.3829 25.1737C18.1093 25.2337 17.7275 25.2463 14.5 25.2463C11.2737 25.2463 10.8919 25.2337 9.61833 25.1737M9.51804 2.575C8.23237 2.63625 7.35271 2.8475 6.58541 3.15625C5.77882 3.46977 5.04809 3.96163 4.44425 4.5975C3.82958 5.22217 3.35411 5.97809 3.05104 6.8125C2.75258 7.6075 2.54837 8.51625 2.49037 9.84625C2.42875 11.1787 2.41666 11.605 2.41666 15C2.41666 18.395 2.42996 18.8212 2.48916 20.1537C2.54837 21.4837 2.75258 22.3925 3.05104 23.1875C3.35426 24.0215 3.82972 24.7769 4.44425 25.4012C5.04797 26.0376 5.77871 26.5299 6.58541 26.8438C7.35391 27.1525 8.23237 27.3637 9.51804 27.4237C10.8073 27.485 11.2182 27.5 14.5 27.5C17.7818 27.5 18.1939 27.4863 19.482 27.425C20.7676 27.3638 21.6461 27.1525 22.4146 26.8438C23.2209 26.5297 23.9512 26.0374 24.5545 25.4012C25.1694 24.7774 25.6452 24.0224 25.949 23.1888C26.2474 22.3925 26.4528 21.4837 26.5096 20.1537C26.5688 18.82 26.5821 18.395 26.5821 15C26.5821 11.605 26.5688 11.1787 26.5096 9.84625C26.4516 8.51625 26.2474 7.60625 25.949 6.8125C25.6455 5.97798 25.1696 5.22204 24.5545 4.5975C23.9514 3.96194 23.2215 3.47009 22.4158 3.15625C21.6461 2.8475 20.7676 2.635 19.4832 2.57625C18.1939 2.515 17.783 2.5 14.5 2.5C11.217 2.5 10.8061 2.51375 9.51683 2.575" fill="#222222"/>
</g>
</svg>
