<svg width="15" height="15" viewBox="0 0 15 15" fill="none" xmlns="http://www.w3.org/2000/svg">
<g id="lineicons:instagram">
<path id="Vector" d="M5.41688 7.5C5.41688 7.2264 5.47077 6.95548 5.57547 6.7027C5.68017 6.44993 5.83363 6.22025 6.0271 6.02679C6.22056 5.83332 6.45024 5.67986 6.70302 5.57515C6.95579 5.47045 7.22671 5.41656 7.50031 5.41656C7.77391 5.41656 8.04484 5.47045 8.29761 5.57515C8.55038 5.67986 8.78006 5.83332 8.97353 6.02679C9.16699 6.22025 9.32046 6.44993 9.42516 6.7027C9.52986 6.95548 9.58375 7.2264 9.58375 7.5C9.58375 8.05256 9.36425 8.58249 8.97353 8.97321C8.58281 9.36393 8.05288 9.58344 7.50031 9.58344C6.94775 9.58344 6.41782 9.36393 6.0271 8.97321C5.63638 8.58249 5.41688 8.05256 5.41688 7.5ZM4.29063 7.5C4.29063 7.92146 4.37364 8.3388 4.53492 8.72817C4.69621 9.11755 4.93261 9.47135 5.23063 9.76937C5.52865 10.0674 5.88245 10.3038 6.27183 10.4651C6.66121 10.6264 7.07854 10.7094 7.5 10.7094C7.92146 10.7094 8.3388 10.6264 8.72818 10.4651C9.11755 10.3038 9.47135 10.0674 9.76937 9.76937C10.0674 9.47135 10.3038 9.11755 10.4651 8.72817C10.6264 8.3388 10.7094 7.92146 10.7094 7.5C10.7094 6.64882 10.3712 5.8325 9.76937 5.23063C9.1675 4.62875 8.35118 4.29062 7.5 4.29062C6.64882 4.29062 5.8325 4.62875 5.23063 5.23063C4.62876 5.8325 4.29063 6.64882 4.29063 7.5ZM10.0863 4.16375C10.0863 4.31209 10.1302 4.45709 10.2126 4.58043C10.2951 4.70376 10.4122 4.79989 10.5492 4.85666C10.6863 4.91343 10.8371 4.92828 10.9826 4.89934C11.1281 4.8704 11.2617 4.79897 11.3666 4.69408C11.4715 4.58919 11.5429 4.45555 11.5718 4.31007C11.6008 4.16458 11.5859 4.01378 11.5292 3.87674C11.4724 3.73969 11.3763 3.62256 11.2529 3.54015C11.1296 3.45774 10.9846 3.41375 10.8363 3.41375C10.6373 3.41375 10.4466 3.49277 10.3059 3.63342C10.1653 3.77407 10.0863 3.96484 10.0863 4.16375ZM4.975 12.5875C4.36563 12.5594 4.03438 12.4581 3.81438 12.3725C3.54288 12.2723 3.29729 12.1126 3.09563 11.905C2.88807 11.7033 2.72833 11.4577 2.62813 11.1863C2.54188 10.9663 2.44063 10.635 2.41313 10.0256C2.3825 9.36688 2.37688 9.16938 2.37688 7.50063C2.37688 5.83188 2.38313 5.63375 2.41313 4.97438C2.44063 4.365 2.54313 4.03438 2.62813 3.81375C2.74125 3.52188 2.87688 3.31375 3.09563 3.095C3.31438 2.87625 3.52188 2.74063 3.81438 2.6275C4.03438 2.54125 4.36563 2.44 4.975 2.4125C5.63375 2.38125 5.83125 2.375 7.5 2.375C9.16875 2.375 9.36625 2.38125 10.0256 2.41188C10.635 2.43937 10.9656 2.54188 11.1863 2.62688C11.4781 2.73937 11.6863 2.87563 11.905 3.09438C12.1238 3.31313 12.2594 3.52125 12.3731 3.81312C12.4588 4.03312 12.5606 4.36438 12.5875 4.97375C12.6181 5.63313 12.6244 5.83 12.6244 7.49937C12.6244 9.16812 12.6181 9.36563 12.5875 10.025C12.56 10.6344 12.4581 10.9656 12.3731 11.1856C12.2729 11.4571 12.1132 11.7027 11.9056 11.9044C11.704 12.1119 11.4584 12.2717 11.1869 12.3719C10.9663 12.4575 10.635 12.5594 10.0256 12.5869C9.36688 12.6169 9.16938 12.6231 7.5 12.6231C5.83125 12.6231 5.63375 12.6169 4.975 12.5869M4.92313 1.2875C4.25813 1.31812 3.80313 1.42375 3.40625 1.57813C2.98905 1.73489 2.61108 1.98082 2.29875 2.29875C1.98082 2.61108 1.73489 2.98905 1.57813 3.40625C1.42375 3.80375 1.31813 4.25812 1.28813 4.92312C1.25625 5.58938 1.25 5.8025 1.25 7.5C1.25 9.1975 1.25687 9.41062 1.2875 10.0769C1.31812 10.7419 1.42375 11.1962 1.57813 11.5938C1.73497 12.0107 1.98089 12.3885 2.29875 12.7006C2.61102 13.0188 2.98899 13.2649 3.40625 13.4219C3.80375 13.5763 4.25813 13.6819 4.92313 13.7119C5.59 13.7425 5.8025 13.75 7.5 13.75C9.1975 13.75 9.41063 13.7431 10.0769 13.7125C10.7419 13.6819 11.1963 13.5763 11.5938 13.4219C12.0108 13.2649 12.3885 13.0187 12.7006 12.7006C13.0186 12.3887 13.2648 12.0112 13.4219 11.5944C13.5763 11.1962 13.6825 10.7419 13.7119 10.0769C13.7425 9.41 13.7494 9.1975 13.7494 7.5C13.7494 5.8025 13.7425 5.58938 13.7119 4.92312C13.6819 4.25812 13.5763 3.80312 13.4219 3.40625C13.2649 2.98899 13.0188 2.61102 12.7006 2.29875C12.3887 1.98097 12.0111 1.73505 11.5944 1.57813C11.1963 1.42375 10.7419 1.3175 10.0775 1.28813C9.41063 1.2575 9.19813 1.25 7.5 1.25C5.80188 1.25 5.58938 1.25687 4.9225 1.2875" fill="#E0E0E0"/>
<path id="Vector_2" d="M5.41688 7.5C5.41688 7.2264 5.47077 6.95548 5.57547 6.7027C5.68017 6.44993 5.83363 6.22025 6.0271 6.02679C6.22056 5.83332 6.45024 5.67986 6.70302 5.57515C6.95579 5.47045 7.22671 5.41656 7.50031 5.41656C7.77391 5.41656 8.04484 5.47045 8.29761 5.57515C8.55038 5.67986 8.78006 5.83332 8.97353 6.02679C9.16699 6.22025 9.32046 6.44993 9.42516 6.7027C9.52986 6.95548 9.58375 7.2264 9.58375 7.5C9.58375 8.05256 9.36425 8.58249 8.97353 8.97321C8.58281 9.36393 8.05288 9.58344 7.50031 9.58344C6.94775 9.58344 6.41782 9.36393 6.0271 8.97321C5.63638 8.58249 5.41688 8.05256 5.41688 7.5ZM4.29063 7.5C4.29063 7.92146 4.37364 8.3388 4.53492 8.72817C4.69621 9.11755 4.93261 9.47135 5.23063 9.76937C5.52865 10.0674 5.88245 10.3038 6.27183 10.4651C6.66121 10.6264 7.07854 10.7094 7.5 10.7094C7.92146 10.7094 8.3388 10.6264 8.72818 10.4651C9.11755 10.3038 9.47135 10.0674 9.76937 9.76937C10.0674 9.47135 10.3038 9.11755 10.4651 8.72817C10.6264 8.3388 10.7094 7.92146 10.7094 7.5C10.7094 6.64882 10.3712 5.8325 9.76937 5.23063C9.1675 4.62875 8.35118 4.29062 7.5 4.29062C6.64882 4.29062 5.8325 4.62875 5.23063 5.23063C4.62876 5.8325 4.29063 6.64882 4.29063 7.5ZM10.0863 4.16375C10.0863 4.31209 10.1302 4.45709 10.2126 4.58043C10.2951 4.70376 10.4122 4.79989 10.5492 4.85666C10.6863 4.91343 10.8371 4.92828 10.9826 4.89934C11.1281 4.8704 11.2617 4.79897 11.3666 4.69408C11.4715 4.58919 11.5429 4.45555 11.5718 4.31007C11.6008 4.16458 11.5859 4.01378 11.5292 3.87674C11.4724 3.73969 11.3763 3.62256 11.2529 3.54015C11.1296 3.45774 10.9846 3.41375 10.8363 3.41375C10.6373 3.41375 10.4466 3.49277 10.3059 3.63342C10.1653 3.77407 10.0863 3.96484 10.0863 4.16375ZM4.975 12.5875C4.36563 12.5594 4.03438 12.4581 3.81438 12.3725C3.54288 12.2723 3.29729 12.1126 3.09563 11.905C2.88807 11.7033 2.72833 11.4577 2.62813 11.1863C2.54188 10.9663 2.44063 10.635 2.41313 10.0256C2.3825 9.36688 2.37688 9.16938 2.37688 7.50063C2.37688 5.83188 2.38313 5.63375 2.41313 4.97438C2.44063 4.365 2.54313 4.03438 2.62813 3.81375C2.74125 3.52188 2.87688 3.31375 3.09563 3.095C3.31438 2.87625 3.52188 2.74063 3.81438 2.6275C4.03438 2.54125 4.36563 2.44 4.975 2.4125C5.63375 2.38125 5.83125 2.375 7.5 2.375C9.16875 2.375 9.36625 2.38125 10.0256 2.41188C10.635 2.43937 10.9656 2.54188 11.1863 2.62688C11.4781 2.73937 11.6863 2.87563 11.905 3.09438C12.1238 3.31313 12.2594 3.52125 12.3731 3.81312C12.4588 4.03312 12.5606 4.36438 12.5875 4.97375C12.6181 5.63313 12.6244 5.83 12.6244 7.49937C12.6244 9.16812 12.6181 9.36563 12.5875 10.025C12.56 10.6344 12.4581 10.9656 12.3731 11.1856C12.2729 11.4571 12.1132 11.7027 11.9056 11.9044C11.704 12.1119 11.4584 12.2717 11.1869 12.3719C10.9663 12.4575 10.635 12.5594 10.0256 12.5869C9.36688 12.6169 9.16938 12.6231 7.5 12.6231C5.83125 12.6231 5.63375 12.6169 4.975 12.5869M4.92313 1.2875C4.25813 1.31812 3.80313 1.42375 3.40625 1.57813C2.98905 1.73489 2.61108 1.98082 2.29875 2.29875C1.98082 2.61108 1.73489 2.98905 1.57813 3.40625C1.42375 3.80375 1.31813 4.25812 1.28813 4.92312C1.25625 5.58938 1.25 5.8025 1.25 7.5C1.25 9.1975 1.25687 9.41062 1.2875 10.0769C1.31812 10.7419 1.42375 11.1962 1.57813 11.5938C1.73497 12.0107 1.98089 12.3885 2.29875 12.7006C2.61102 13.0188 2.98899 13.2649 3.40625 13.4219C3.80375 13.5763 4.25813 13.6819 4.92313 13.7119C5.59 13.7425 5.8025 13.75 7.5 13.75C9.1975 13.75 9.41063 13.7431 10.0769 13.7125C10.7419 13.6819 11.1963 13.5763 11.5938 13.4219C12.0108 13.2649 12.3885 13.0187 12.7006 12.7006C13.0186 12.3887 13.2648 12.0112 13.4219 11.5944C13.5763 11.1962 13.6825 10.7419 13.7119 10.0769C13.7425 9.41 13.7494 9.1975 13.7494 7.5C13.7494 5.8025 13.7425 5.58938 13.7119 4.92312C13.6819 4.25812 13.5763 3.80312 13.4219 3.40625C13.2649 2.98899 13.0188 2.61102 12.7006 2.29875C12.3887 1.98097 12.0111 1.73505 11.5944 1.57813C11.1963 1.42375 10.7419 1.3175 10.0775 1.28813C9.41063 1.2575 9.19813 1.25 7.5 1.25C5.80188 1.25 5.58938 1.25687 4.9225 1.2875" fill="#E0E0E0"/>
</g>
</svg>
