<?xml version="1.0" encoding="UTF-8"?>
<svg id="_レイヤー_1" data-name="レイヤー 1" xmlns="http://www.w3.org/2000/svg" viewBox="0 0 132.56 75.87">
  <path d="M132.53,47.69c-.3-4.73-2.76-8.9-7.13-12.05-8.6-6.2-19.92-6.97-35.02-5.79-15.1,1.18-27.68-.35-33.31-1.78-5.64-1.43-11.08-3.75-10.97-8.61.12-5.1,5.7-7.16,10.85-7.26,5.96-.11,11.92,2.2,18.25,4.66,7.96,3.09,16.19,6.29,24.32,4.17,4.06-1.06,7.16-4.3,7.55-7.89.29-2.69-.72-7.97-10.78-13.08-.26-.13-.53-.06-.66.16l-1.53,2.02c-.07.1-.11.22-.11.33,0,.16.08.3.21.39,1.99,1.36,2.59,2.94,2.74,4.03.22,1.57-.32,2.88-.86,3.53-3.6,4.36-20.58.95-26.97-.34-.84-.17-1.52-.31-2-.39-10.03-1.81-28.13-3.76-36.61,3.47-2.49,2.12-3.78,4.76-3.72,7.64.04,2.27,1.05,4.31,3.01,6.08,5.03,4.56,16.2,6.97,32.76,7.17,1.57.02,3.2.01,4.87,0-.9.23-1.77.45-2.61.67-.78.21-1.88.52-3.23.91-10.32,2.96-37.74,10.84-44.23,4.15-.96-.99-2.03-3.07-1.88-5.67.11-1.81.88-4.48,3.97-6.98.16-.13.27-.32.29-.52.02-.23-.05-.47-.22-.67l-1.76-2.14c-.28-.38-.73-.46-1.14-.21C9.67,27.95-1.68,36.59.21,46.48c1.21,6.33,7.35,10.15,12.9,11.13,13.64,2.39,26.73-3.95,39.39-10.09,10.07-4.88,19.57-9.49,29.35-10.09,8.47-.53,17.38,1.59,18.51,9.76.37,2.65-.51,5.99-2.87,8.47-9.16,9.62-29.31,14.9-63.3,14.9h-.02c-.17-.01-.62-.04-.91.31-.2.24-.25.57-.15.97.04.15.05.2,1.65,2.49l.42.6c.3.43.77.93,1.85.93,49.73,0,80.47-5.88,91.36-17.48,3-3.19,4.4-6.79,4.15-10.7Z"/>
</svg>