<svg width="25" height="25" viewBox="0 0 25 25" fill="none" xmlns="http://www.w3.org/2000/svg">
<path d="M12.5 17C11.3069 16.9987 10.1631 16.5241 9.31948 15.6805C8.47585 14.8369 8.00132 13.6931 8 12.5C8 10.019 10.019 8 12.5 8C14.981 8 17 10.019 17 12.5C17 14.981 14.981 17 12.5 17Z" fill="#F2F2F2" style="mix-blend-mode:difference"/>
<path fill-rule="evenodd" clip-rule="evenodd" d="M12.5 3.5C12.6326 3.5 12.7598 3.55268 12.8536 3.64645C12.9473 3.74021 13 3.86739 13 4V6C13 6.13261 12.9473 6.25979 12.8536 6.35355C12.7598 6.44732 12.6326 6.5 12.5 6.5C12.3674 6.5 12.2402 6.44732 12.1464 6.35355C12.0527 6.25979 12 6.13261 12 6V4C12 3.86739 12.0527 3.74021 12.1464 3.64645C12.2402 3.55268 12.3674 3.5 12.5 3.5ZM18.5 12.5C18.5 12.3674 18.5527 12.2402 18.6464 12.1464C18.7402 12.0527 18.8674 12 19 12H21C21.1326 12 21.2598 12.0527 21.3536 12.1464C21.4473 12.2402 21.5 12.3674 21.5 12.5C21.5 12.6326 21.4473 12.7598 21.3536 12.8536C21.2598 12.9473 21.1326 13 21 13H19C18.8674 13 18.7402 12.9473 18.6464 12.8536C18.5527 12.7598 18.5 12.6326 18.5 12.5ZM3.5 12.5C3.5 12.3674 3.55268 12.2402 3.64645 12.1464C3.74021 12.0527 3.86739 12 4 12H6C6.13261 12 6.25979 12.0527 6.35355 12.1464C6.44732 12.2402 6.5 12.3674 6.5 12.5C6.5 12.6326 6.44732 12.7598 6.35355 12.8536C6.25979 12.9473 6.13261 13 6 13H4C3.86739 13 3.74021 12.9473 3.64645 12.8536C3.55268 12.7598 3.5 12.6326 3.5 12.5ZM12.5 18.5C12.6326 18.5 12.7598 18.5527 12.8536 18.6464C12.9473 18.7402 13 18.8674 13 19V21C13 21.1326 12.9473 21.2598 12.8536 21.3536C12.7598 21.4473 12.6326 21.5 12.5 21.5C12.3674 21.5 12.2402 21.4473 12.1464 21.3536C12.0527 21.2598 12 21.1326 12 21V19C12 18.8674 12.0527 18.7402 12.1464 18.6464C12.2402 18.5527 12.3674 18.5 12.5 18.5ZM18.854 6.146C18.9006 6.19245 18.9375 6.24762 18.9627 6.30837C18.9879 6.36911 19.0009 6.43423 19.0009 6.5C19.0009 6.56577 18.9879 6.63089 18.9627 6.69163C18.9375 6.75238 18.9006 6.80755 18.854 6.854L17.354 8.354C17.2601 8.44789 17.1328 8.50063 17 8.50063C16.8672 8.50063 16.7399 8.44789 16.646 8.354C16.5521 8.26011 16.4994 8.13278 16.4994 8C16.4994 7.86722 16.5521 7.73989 16.646 7.646L18.146 6.146C18.1924 6.09944 18.2476 6.06249 18.3084 6.03729C18.3691 6.01208 18.4342 5.99911 18.5 5.99911C18.5658 5.99911 18.6309 6.01208 18.6916 6.03729C18.7524 6.06249 18.8076 6.09944 18.854 6.146ZM8.354 16.646C8.40056 16.6924 8.43751 16.7476 8.46271 16.8084C8.48792 16.8691 8.50089 16.9342 8.50089 17C8.50089 17.0658 8.48792 17.1309 8.46271 17.1916C8.43751 17.2524 8.40056 17.3076 8.354 17.354L6.854 18.854C6.76011 18.9479 6.63278 19.0006 6.5 19.0006C6.36722 19.0006 6.23989 18.9479 6.146 18.854C6.05211 18.7601 5.99937 18.6328 5.99937 18.5C5.99937 18.3672 6.05211 18.2399 6.146 18.146L7.646 16.646C7.69245 16.5994 7.74762 16.5625 7.80837 16.5373C7.86911 16.5121 7.93423 16.4991 8 16.4991C8.06577 16.4991 8.13089 16.5121 8.19163 16.5373C8.25238 16.5625 8.30755 16.5994 8.354 16.646ZM6.146 6.146C6.19245 6.09944 6.24762 6.06249 6.30837 6.03729C6.36911 6.01208 6.43423 5.99911 6.5 5.99911C6.56577 5.99911 6.63089 6.01208 6.69163 6.03729C6.75238 6.06249 6.80755 6.09944 6.854 6.146L8.354 7.646C8.44789 7.73989 8.50063 7.86722 8.50063 8C8.50063 8.13278 8.44789 8.26011 8.354 8.354C8.26011 8.44789 8.13278 8.50063 8 8.50063C7.86722 8.50063 7.73989 8.44789 7.646 8.354L6.146 6.854C6.09944 6.80755 6.06249 6.75238 6.03729 6.69163C6.01208 6.63089 5.99911 6.56577 5.99911 6.5C5.99911 6.43423 6.01208 6.36911 6.03729 6.30837C6.06249 6.24762 6.09944 6.19245 6.146 6.146ZM16.646 16.646C16.6924 16.5994 16.7476 16.5625 16.8084 16.5373C16.8691 16.5121 16.9342 16.4991 17 16.4991C17.0658 16.4991 17.1309 16.5121 17.1916 16.5373C17.2524 16.5625 17.3076 16.5994 17.354 16.646L18.854 18.146C18.9005 18.1925 18.9374 18.2477 18.9625 18.3084C18.9877 18.3692 19.0006 18.4343 19.0006 18.5C19.0006 18.5657 18.9877 18.6308 18.9625 18.6916C18.9374 18.7523 18.9005 18.8075 18.854 18.854C18.8075 18.9005 18.7523 18.9374 18.6916 18.9625C18.6308 18.9877 18.5657 19.0006 18.5 19.0006C18.4343 19.0006 18.3692 18.9877 18.3084 18.9625C18.2477 18.9374 18.1925 18.9005 18.146 18.854L16.646 17.354C16.5994 17.3076 16.5625 17.2524 16.5373 17.1916C16.5121 17.1309 16.4991 17.0658 16.4991 17C16.4991 16.9342 16.5121 16.8691 16.5373 16.8084C16.5625 16.7476 16.5994 16.6924 16.646 16.646Z" fill="#F2F2F2" style="mix-blend-mode:difference"/>
</svg>
