<?xml version="1.0" encoding="UTF-8"?>
<svg xmlns="http://www.w3.org/2000/svg" viewBox="0 0 18 18">
  <defs>
    <style>
      .cls-1 {
        fill-rule: evenodd;
      }

      .cls-1, .cls-2, .cls-3 {
        isolation: isolate;
      }

      .cls-1, .cls-3 {
        fill: #fff;
        mix-blend-mode: difference;
      }
    </style>
  </defs>
  <g class="cls-2">
    <g id="_レイヤー_1" data-name="レイヤー 1">
      <path class="cls-3" d="M9,13.5c-1.19,0-2.34-.48-3.18-1.32-.84-.84-1.32-1.99-1.32-3.18,0-2.48,2.02-4.5,4.5-4.5s4.5,2.02,4.5,4.5-2.02,4.5-4.5,4.5Z"/>
      <path class="cls-1" d="M9,0c.13,0,.26.05.35.15.09.09.15.22.15.35v2c0,.13-.05.26-.15.35-.09.09-.22.15-.35.15s-.26-.05-.35-.15c-.09-.09-.15-.22-.15-.35V.5c0-.13.05-.26.15-.35.09-.09.22-.15.35-.15ZM15,9c0-.13.05-.26.15-.35.09-.09.22-.15.35-.15h2c.13,0,.26.05.35.15.09.09.15.22.15.35s-.05.26-.15.35c-.09.09-.22.15-.35.15h-2c-.13,0-.26-.05-.35-.15-.09-.09-.15-.22-.15-.35ZM0,9c0-.13.05-.26.15-.35.09-.09.22-.15.35-.15h2c.13,0,.26.05.35.15.09.09.15.22.15.35s-.05.26-.15.35c-.09.09-.22.15-.35.15H.5c-.13,0-.26-.05-.35-.15-.09-.09-.15-.22-.15-.35ZM9,15c.13,0,.26.05.35.15.09.09.15.22.15.35v2c0,.13-.05.26-.15.35-.09.09-.22.15-.35.15s-.26-.05-.35-.15c-.09-.09-.15-.22-.15-.35v-2c0-.13.05-.26.15-.35.09-.09.22-.15.35-.15ZM15.35,2.65s.08.1.11.16c.03.06.04.13.04.19s-.01.13-.04.19c-.03.06-.06.12-.11.16l-1.5,1.5c-.09.09-.22.15-.35.15s-.26-.05-.35-.15-.15-.22-.15-.35.05-.26.15-.35l1.5-1.5s.1-.08.16-.11c.06-.03.13-.04.19-.04s.13.01.19.04c.06.03.12.06.16.11ZM4.85,13.15s.08.1.11.16c.03.06.04.13.04.19s-.01.13-.04.19c-.03.06-.06.12-.11.16l-1.5,1.5c-.09.09-.22.15-.35.15s-.26-.05-.35-.15c-.09-.09-.15-.22-.15-.35s.05-.26.15-.35l1.5-1.5s.1-.08.16-.11c.06-.03.13-.04.19-.04s.13.01.19.04c.06.03.12.06.16.11ZM2.65,2.65s.1-.08.16-.11c.06-.03.13-.04.19-.04s.13.01.19.04c.06.03.12.06.16.11l1.5,1.5c.09.09.15.22.15.35s-.05.26-.15.35-.22.15-.35.15-.26-.05-.35-.15l-1.5-1.5s-.08-.1-.11-.16c-.03-.06-.04-.13-.04-.19s.01-.13.04-.19c.03-.06.06-.12.11-.16ZM13.15,13.15s.1-.08.16-.11c.06-.03.13-.04.19-.04s.13.01.19.04c.06.03.12.06.16.11l1.5,1.5s.08.1.11.16c.03.06.04.13.04.19s-.01.13-.04.19c-.03.06-.06.12-.11.16s-.1.08-.16.11c-.06.03-.13.04-.19.04s-.13-.01-.19-.04c-.06-.03-.12-.06-.16-.11l-1.5-1.5s-.08-.1-.11-.16c-.03-.06-.04-.13-.04-.19s.01-.13.04-.19c.03-.06.06-.12.11-.16Z"/>
    </g>
  </g>
</svg>