<?xml version="1.0" encoding="UTF-8"?>
<svg xmlns="http://www.w3.org/2000/svg" version="1.1" viewBox="0 0 18 18">
  <!-- Generator: Adobe Illustrator 29.0.1, SVG Export Plug-In . SVG Version: 2.1.0 Build 192)  -->
  <defs>
    <style>
      .st0 {
        fill-rule: evenodd;
      }

      .st0, .st1, .st2 {
        isolation: isolate;
      }

      .st0, .st2 {
        fill: #fff;
        mix-blend-mode: difference;
      }
    </style>
  </defs>
  <g class="st1">
    <g id="_レイヤー_1" data-name="レイヤー_1">
      <path class="st2" d="M9,13.5c-1.2,0-2.3-.5-3.2-1.3-.8-.8-1.3-2-1.3-3.2,0-2.5,2-4.5,4.5-4.5s4.5,2,4.5,4.5-2,4.5-4.5,4.5Z"/>
      <path class="st0" d="M9,0c.1,0,.3,0,.4.1,0,0,.1.2.1.4v2c0,.1,0,.3-.1.4,0,0-.2.1-.4.1s-.3,0-.4-.1c0,0-.1-.2-.1-.4V.5c0-.1,0-.3.1-.4,0,0,.2-.1.4-.1ZM15,9c0-.1,0-.3.1-.4,0,0,.2-.1.4-.1h2c.1,0,.3,0,.4.1,0,0,.1.2.1.4s0,.3-.1.4c0,0-.2.1-.4.1h-2c-.1,0-.3,0-.4-.1,0,0-.1-.2-.1-.4ZM0,9c0-.1,0-.3.1-.4,0,0,.2-.1.4-.1h2c.1,0,.3,0,.4.1,0,0,.1.2.1.4s0,.3-.1.4c0,0-.2.1-.4.1H.5c-.1,0-.3,0-.4-.1,0,0-.1-.2-.1-.4ZM9,15c.1,0,.3,0,.4.1,0,0,.1.2.1.4v2c0,.1,0,.3-.1.4,0,0-.2.1-.4.1s-.3,0-.4-.1c0,0-.1-.2-.1-.4v-2c0-.1,0-.3.1-.4,0,0,.2-.1.4-.1ZM15.4,2.6s0,.1.1.2c0,0,0,.1,0,.2s0,.1,0,.2c0,0,0,.1-.1.2l-1.5,1.5c0,0-.2.1-.4.1s-.3,0-.4-.1-.1-.2-.1-.4,0-.3.1-.4l1.5-1.5s.1,0,.2-.1c0,0,.1,0,.2,0s.1,0,.2,0c0,0,.1,0,.2.1ZM4.9,13.1s0,.1.1.2c0,0,0,.1,0,.2s0,.1,0,.2c0,0,0,.1-.1.2l-1.5,1.5c0,0-.2.1-.4.1s-.3,0-.4-.1c0,0-.1-.2-.1-.4s0-.3.1-.4l1.5-1.5s.1,0,.2-.1c0,0,.1,0,.2,0s.1,0,.2,0c0,0,.1,0,.2.1ZM2.6,2.6s.1,0,.2-.1c0,0,.1,0,.2,0s.1,0,.2,0c0,0,.1,0,.2.1l1.5,1.5c0,0,.1.2.1.4s0,.3-.1.4-.2.1-.4.1-.3,0-.4-.1l-1.5-1.5s0-.1-.1-.2c0,0,0-.1,0-.2s0-.1,0-.2c0,0,0-.1.1-.2ZM13.1,13.1s.1,0,.2-.1c0,0,.1,0,.2,0s.1,0,.2,0c0,0,.1,0,.2.1l1.5,1.5s0,.1.1.2c0,0,0,.1,0,.2s0,.1,0,.2c0,0,0,.1-.1.2s-.1,0-.2.1c0,0-.1,0-.2,0s-.1,0-.2,0c0,0-.1,0-.2-.1l-1.5-1.5s0-.1-.1-.2c0,0,0-.1,0-.2s0-.1,0-.2c0,0,0-.1.1-.2Z"/>
    </g>
  </g>
</svg>