<svg width="24" height="24" viewBox="0 0 24 24" fill="none" xmlns="http://www.w3.org/2000/svg">
<rect width="24" height="24" rx="3" fill="#2F2F2F"/>
<path fill-rule="evenodd" clip-rule="evenodd" d="M9.00006 5C7.89549 5 7.00006 5.89543 7.00006 7V7.00003H5C3.89543 7.00003 3 7.89546 3 9.00003V17C3 18.1046 3.89543 19 5 19H19C20.1046 19 21 18.1046 21 17V9.00003C21 7.89546 20.1046 7.00003 19 7.00003H17.0001V7C17.0001 5.89543 16.1046 5 15.0001 5H9.00006ZM15.9999 13.0001C15.9999 15.2092 14.2091 17.0001 11.9999 17.0001C9.7908 17.0001 7.99994 15.2092 7.99994 13.0001C7.99994 10.7909 9.7908 9.00006 11.9999 9.00006C14.2091 9.00006 15.9999 10.7909 15.9999 13.0001ZM12.0013 15.0001C13.1058 15.0001 14.0013 14.1047 14.0013 13.0001C14.0013 11.8955 13.1058 11.0001 12.0013 11.0001C10.8967 11.0001 10.0013 11.8955 10.0013 13.0001C10.0013 14.1047 10.8967 15.0001 12.0013 15.0001Z" fill="#FDFDFD"/>
</svg>
