<svg width="24" height="24" viewBox="0 0 24 24" fill="none" xmlns="http://www.w3.org/2000/svg">
<rect width="24" height="24" rx="12" fill="#2F2F2F"/>
<path d="M12.08 8.824C12.544 7.048 13.888 6.264 15.392 6.264C17.216 6.264 18.736 7.944 18.736 10.12C18.736 12.488 16.832 14.184 15.632 15.336C14.176 16.728 12.624 18.632 12.032 19.592C12.016 19.624 11.984 19.624 11.968 19.592C11.376 18.632 9.824 16.728 8.368 15.336C7.168 14.184 5.264 12.472 5.264 10.12C5.264 7.944 6.784 6.264 8.608 6.264C10.112 6.264 11.44 7.048 11.92 8.824C11.936 8.872 11.952 8.936 12 8.936C12.048 8.936 12.064 8.872 12.08 8.824Z" fill="white"/>
</svg>
