<?xml version="1.0" encoding="UTF-8"?>
<svg id="arrow" xmlns="http://www.w3.org/2000/svg" viewBox="0 0 30 30">
  <defs>
    <style>
      .cls-1 {
        fill: #fff;
      }
    </style>
  </defs>
  <path class="cls-1" d="M15,0C6.72,0,0,6.72,0,15s6.72,15,15,15,15-6.72,15-15S23.28,0,15,0ZM22.48,16.24l-6.04,6.04c-.2.2-.45.29-.71.29s-.51-.1-.71-.29c-.39-.39-.39-1.02,0-1.41l4.34-4.34H7.78c-.55,0-1-.45-1-1s.45-1,1-1h11.59l-4.34-4.34c-.39-.39-.39-1.02,0-1.41s1.02-.39,1.41,0l6.04,6.04c.09.09.17.2.22.33.1.24.1.52,0,.76-.05.12-.12.23-.22.33Z"/>
</svg>